<svg xmlns="http://www.w3.org/2000/svg" viewBox="0 0 120 120"><defs><linearGradient id="gp" x1="0" x2="0" y1="0" y2="1"><stop offset="0" stop-color="#66d59c"/><stop offset="1" stop-color="#1f9a62"/></linearGradient></defs><g><path d="M60 100 C55 80 58 60 62 40 C64 30 66 24 68 18 C66 20 60 28 56 40 C52 52 52 72 54 100 Z" fill="url(#gp)"/><path d="M46 100 C42 88 42 72 46 56 C48 48 50 44 52 40 C49 41 44 47 40 58 C36 68 36 82 38 100 Z" fill="url(#gp)"/><path d="M74 100 C78 86 80 70 78 56 C77 46 74 40 72 36 C76 38 82 44 86 54 C90 65 90 82 86 100 Z" fill="url(#gp)"/></g></svg>